<svg width="26" height="26" viewBox="0 0 26 26" fill="none" xmlns="http://www.w3.org/2000/svg">
<path d="M2.48804 12.1916L1.32783 12.0774C0.616542 12.0073 0 12.5661 0 13.2808V24.7907C0 25.4586 0.541423 26 1.2093 26H14.4986C15.4551 26 16.033 24.942 15.5161 24.1372L11.3538 17.6568C11.2975 17.5692 11.2302 17.4892 11.1535 17.4189L8.07828 14.5995C7.97784 14.5074 7.86256 14.433 7.73731 14.3793L2.84578 12.2835C2.73194 12.2348 2.61129 12.2038 2.48804 12.1916Z" fill="#73AFFF"/>
<path d="M13.0951 17.2331L22.4835 15.7328C22.9528 15.6578 23.4225 15.8646 23.684 16.2614L25.8004 19.4725C25.9306 19.67 26 19.9014 26 20.138V24.7907C26 25.4586 25.4586 26 24.7907 26H17.3731C16.9615 26 16.5781 25.7906 16.3556 25.4442L12.2684 19.0807C11.7971 18.347 12.2339 17.3707 13.0951 17.2331Z" fill="#3777A7"/>
<path d="M22.2797 10.5077L20.763 9.63458C20.4372 9.44698 20.0425 9.42165 19.6954 9.56604L9.676 13.7328C8.86003 14.0722 8.67175 15.1436 9.32314 15.7408L10.8382 17.1298C11.1104 17.3794 11.4816 17.4909 11.8463 17.4326L22.1398 15.7877C22.7674 15.6874 23.2103 15.1184 23.1535 14.4854L22.8808 11.4476C22.8456 11.055 22.6213 10.7043 22.2797 10.5077Z" fill="#CB75FF"/>
<path d="M9.40904 6.52757L4.1721 10.946C3.48439 11.5262 3.6486 12.6275 4.47566 12.9819L7.45729 14.2593C7.75731 14.3879 8.09654 14.3897 8.39791 14.2644L19.4086 9.68529C19.9049 9.4789 20.2054 8.96973 20.1462 8.43552L19.7384 4.7554C19.6549 4.00173 18.9064 3.50997 18.1815 3.73255L9.83389 6.29582C9.6781 6.34366 9.5336 6.42249 9.40904 6.52757Z" fill="#FEAD62"/>
<path d="M1.2093 0H11.0639C11.9833 0 12.5664 0.985386 12.1239 1.79131L9.70606 6.19506C9.6345 6.32541 9.5395 6.44144 9.42585 6.53733L3.06424 11.9046C2.81475 12.1151 2.49076 12.2158 2.1659 12.1838L1.09078 12.078C0.471796 12.017 0 11.4965 0 10.8745V1.2093C0 0.541423 0.541424 0 1.2093 0Z" fill="#53EC62"/>
<path d="M12.763 0.627294L11.0325 3.77917C10.5099 4.73107 11.4094 5.83597 12.4475 5.51721L19.0514 3.48939C19.3857 3.38674 19.6592 3.14438 19.8013 2.82485L20.3013 1.70079C20.657 0.901053 20.0717 0 19.1964 0H13.8231C13.3817 0 12.9754 0.240429 12.763 0.627294Z" fill="#FFF06B"/>
<path d="M19.7107 3.02861L20.7385 0.717816C20.9327 0.281287 21.3657 0 21.8435 0H24.7907C25.4586 0 26 0.541424 26 1.2093V8.59134C26 9.0609 25.7282 9.48801 25.3028 9.68686L23.3947 10.5788C23.0374 10.7458 22.6211 10.7281 22.2792 10.5314L20.7772 9.6667C20.4433 9.4745 20.221 9.13473 20.1786 8.75183L19.6137 3.65328C19.59 3.44013 19.6235 3.22455 19.7107 3.02861Z" fill="#9975FF"/>
</svg>
